<?xml version="1.0" encoding="iso-8859-1"?>
<!-- Generator: Adobe Illustrator 19.0.0, SVG Export Plug-In . SVG Version: 6.00 Build 0)  -->
<svg version="1.1" id="Capa_1" xmlns="http://www.w3.org/2000/svg" xmlns:xlink="http://www.w3.org/1999/xlink" x="0px" y="0px"
	 viewBox="0 0 512 512" style="enable-background:new 0 0 512 512;" xml:space="preserve">
<g>
	<g>
		<path d="M408.028,62.972C367.42,22.364,313.429,0,256,0c-57.429,0-111.42,22.364-152.028,62.972C63.364,103.58,41,157.571,41,215
			c0,29.381,5.753,58.02,17.1,85.121c11.347,27.101,27.714,51.296,48.646,71.914L248.854,512h14.293l142.107-139.965
			c20.933-20.617,37.3-44.813,48.646-71.914C465.247,273.02,471,244.381,471,215C471,157.571,448.636,103.58,408.028,62.972z
			 M256,261c-30.327,0-55-24.673-55-55c0-30.327,24.673-55,55-55c30.327,0,55,24.673,55,55C311,236.327,286.327,261,256,261z"/>
	</g>
</g>
<g>
</g>
<g>
</g>
<g>
</g>
<g>
</g>
<g>
</g>
<g>
</g>
<g>
</g>
<g>
</g>
<g>
</g>
<g>
</g>
<g>
</g>
<g>
</g>
<g>
</g>
<g>
</g>
<g>
</g>
</svg>
